# xmcd
#
# Track frame offsets: 
#        150
#        12099
#        23428
#        33935
#        45335
#        58346
#        74004
#        83685
#        94965
#        107377
#        120429
#        133171
#        146545
#        158860
#        170480
#        187275
#        199072
#        213423
#        229962
#        241957
#        251735
#        264996
#        274659
#        287087
#        297547
#        310347
#        328981
#        340841
#
# Disc length: 4699 seconds
#
# Revision: 0
# Processed by: cddbd v1.5.2PL0 Copyright (c) Steve Scherf et al.
# Submitted via: ExactAudioCopyFreeDBPlugin 1.0
#
DISCID=a612591c
DTITLE=Various Artist - Stax '68 - A Memphis Story [CD5]
DYEAR=2018
DGENRE=Soul
TTITLE0=Dino and Doc - Mighty Cold Winter
TTITLE1=Dino and Doc - A Woman Can't Do (What a Man Do)
TTITLE2=William Bell - I Forgot to Be Your Lover
TTITLE3=William Bell - Bring the Curtain Down
TTITLE4=The Goodees - Condition Red
TTITLE5=The Goodees - Didn't Know Love Was so Good
TTITLE6=Mable John - Running Out
TTITLE7=Mable John - Shouldn't I Love Him
TTITLE8=Billy Lee Riley - Family Portrait
TTITLE9=Billy Lee Riley - Going Back to Memphis
TTITLE10=Judy Clay and William Bell - My Baby Specializes
TTITLE11=Judy Clay and William Bell - Left Over Love
TTITLE12=The Soul Children - I'll Understand
TTITLE13=The Soul Children - Doing Our Thang
TTITLE14=The Staple Singers - The Ghetto
TTITLE15=The Staple Singers - Got to Be Some Changes Made
TTITLE16=Albert King - Blues Power
TTITLE17=Albert King - Night Stomp
TTITLE18=The Epsilons - The Echo
TTITLE19=The Epsilons - Really Rockin
TTITLE20=Rufus Thomas - Funky Way
TTITLE21=Rufus Thomas - I Want to Hold You
TTITLE22=The Generation - The Children Have Your Tongue
TTITLE23=The Generation - Give Her What She Wants
TTITLE24=Daaron Lee - Who's Making Love
TTITLE25=Daaron Lee - Long Black Train
TTITLE26=Johnnie Taylor - Take Care of Your Homework
TTITLE27=Johnnie Taylor - Hold on This Time
EXTD=
EXTT0=
EXTT1=
EXTT2=
EXTT3=
EXTT4=
EXTT5=
EXTT6=
EXTT7=
EXTT8=
EXTT9=
EXTT10=
EXTT11=
EXTT12=
EXTT13=
EXTT14=
EXTT15=
EXTT16=
EXTT17=
EXTT18=
EXTT19=
EXTT20=
EXTT21=
EXTT22=
EXTT23=
EXTT24=
EXTT25=
EXTT26=
EXTT27=
PLAYORDER=
